# Blender v2.79 (sub 0) OBJ File: 'BuildKit.blend'
# www.blender.org
mtllib BuildKit.mtl
o Куб.008_Куб.012
v 0.871761 5.942148 -7.014526
v -3.324392 10.138302 -7.014526
v 0.871761 5.942148 -12.948782
v -3.324392 10.138302 -12.948782
v 0.987465 6.057852 -7.014526
v -3.208688 10.254005 -7.014526
v 0.987465 6.057852 -12.948782
v -3.208688 10.254005 -12.948782
vt 0.926610 0.460216
vt 0.819589 0.460216
vt 0.819589 0.353195
vt 0.926610 0.353195
vt 0.795389 0.265624
vt 0.795389 0.203972
vt 0.857041 0.203972
vt 0.857041 0.265624
vt 0.809501 0.119432
vt 0.809501 0.226454
vt 0.702480 0.226454
vt 0.702480 0.119432
vt 0.728189 0.400024
vt 0.728189 0.338373
vt 0.789840 0.338373
vt 0.789840 0.400024
vt 0.795389 0.332824
vt 0.795389 0.271172
vt 0.857041 0.271172
vt 0.857041 0.332824
vt 0.789840 0.271172
vt 0.789840 0.332824
vt 0.728189 0.332824
vt 0.728189 0.271172
vn -0.7071 -0.7071 0.0000
vn 0.0000 0.0000 -1.0000
vn 0.7071 0.7071 0.0000
vn 0.0000 0.0000 1.0000
vn 0.7071 -0.7071 0.0000
vn -0.7071 0.7071 0.0000
usemtl Материал
s off
f 1/1/1 2/2/1 4/3/1 3/4/1
f 3/5/2 4/6/2 8/7/2 7/8/2
f 7/9/3 8/10/3 6/11/3 5/12/3
f 5/13/4 6/14/4 2/15/4 1/16/4
f 3/17/5 7/18/5 5/19/5 1/20/5
f 8/21/6 4/22/6 2/23/6 6/24/6
o Куб.006_Куб.011
v 0.403812 6.079579 -6.605241
v 0.403812 6.079579 -6.330485
v -3.792341 10.275732 -6.605241
v -3.792341 10.275732 -6.330485
v -3.792341 6.126893 -6.605237
v -3.792341 6.126893 -6.330489
v -0.814993 7.298384 -6.605241
v -0.814993 7.298384 -6.330485
v -1.972232 6.106370 -6.605241
v -1.972232 6.106370 -6.330485
v -3.695159 6.221877 -6.467863
v -2.069525 6.203551 -6.467863
v -3.695155 9.927424 -6.467863
v -0.720491 7.198525 -6.467863
v -1.690583 6.199276 -6.467863
v 0.301214 6.176820 -6.467863
v -3.690810 10.168844 -6.467863
v -1.993765 6.281390 -6.467863
v -0.914773 7.392807 -6.467863
vt 0.899965 0.022999
vt 0.891505 0.062279
vt 0.890494 0.062278
vt 0.899966 0.018299
vt 0.879254 0.075798
vt 0.887714 0.115078
vt 0.887715 0.119778
vt 0.878242 0.075799
vt 0.899965 0.113635
vt 0.899966 0.119778
vt 0.887714 0.024441
vt 0.887715 0.018299
vt 0.961295 0.113645
vt 0.961295 0.022996
vt 0.962306 0.018299
vt 0.962306 0.119792
vt 0.958516 0.022996
vt 0.958516 0.113645
vt 0.957505 0.119792
vt 0.957505 0.018299
vt 0.972665 0.075601
vt 0.972665 0.027456
vt 0.973676 0.018299
vt 0.973676 0.075732
vt 0.976455 0.066575
vt 0.976455 0.018430
vt 0.977466 0.018299
vt 0.977466 0.075732
vt 0.953990 0.027457
vt 0.949405 0.075615
vt 0.948382 0.075747
vt 0.953851 0.018299
vt 0.944579 0.075615
vt 0.939994 0.027457
vt 0.940133 0.018299
vt 0.945602 0.075747
vt 0.954724 0.075615
vt 0.954726 0.075747
vt 0.939260 0.075615
vt 0.939258 0.075747
vt 0.966096 0.018439
vt 0.966096 0.072117
vt 0.965085 0.075869
vt 0.965085 0.018299
vt 0.969886 0.022051
vt 0.969886 0.075728
vt 0.968875 0.075869
vt 0.968875 0.018299
vt 0.936477 0.022057
vt 0.922046 0.075555
vt 0.921001 0.075677
vt 0.936479 0.018299
vt 0.903790 0.018568
vt 0.918221 0.072067
vt 0.918222 0.075825
vt 0.902745 0.018447
vt 0.936477 0.075694
vt 0.936479 0.075825
vt 0.918221 0.018430
vt 0.918222 0.018299
vn 0.0092 0.8194 -0.5731
vn 0.0092 0.8194 0.5731
vn -0.8606 -0.3757 -0.3437
vn -0.8606 -0.3757 0.3437
vn 0.8164 -0.0000 -0.5775
vn 0.8164 -0.0000 0.5775
vn 0.5074 -0.4926 -0.7071
vn 0.5074 -0.4926 0.7071
vn -0.7068 -0.7068 -0.0276
vn -0.7068 -0.7068 0.0276
vn 0.8606 0.3757 -0.3437
vn 0.8606 0.3757 0.3437
vn -0.5074 0.4926 -0.7071
vn -0.5074 0.4926 0.7071
usemtl Материал
s off
f 19/25/7 20/26/7 17/27/7 13/28/7
f 20/29/8 19/30/8 14/31/8 18/32/8
f 20/26/9 21/33/9 11/34/9 17/27/9
f 21/35/10 20/29/10 18/32/10 12/36/10
f 21/37/11 19/38/11 13/39/11 11/40/11
f 19/41/12 21/42/12 12/43/12 14/44/12
f 22/45/13 23/46/13 17/47/13 15/48/13
f 23/49/14 22/50/14 16/51/14 18/52/14
f 23/53/7 24/54/7 9/55/7 17/56/7
f 24/57/8 23/58/8 18/59/8 10/60/8
f 24/54/15 22/61/15 15/62/15 9/55/15
f 22/63/16 24/57/16 10/60/16 16/64/16
f 25/65/17 26/66/17 17/67/17 11/68/17
f 26/69/18 25/70/18 12/71/18 18/72/18
f 26/73/19 27/74/19 15/75/19 17/76/19
f 27/77/20 26/78/20 18/79/20 16/80/20
f 27/74/15 25/81/15 11/82/15 15/75/15
f 25/83/16 27/77/16 16/80/16 12/84/16
o Куб.005_Куб.006
v -0.415168 0.000000 13.626371
v -0.415168 5.934257 13.626371
v -0.415168 0.000000 7.692114
v -0.415168 5.934257 7.692114
v 0.415168 0.000000 13.626371
v 0.415168 5.934257 13.626371
v 0.415168 0.000000 7.692114
v 0.415168 5.934257 7.692114
v 0.415168 4.823182 11.659243
v -0.415168 4.823182 11.659243
v 0.415168 4.823182 9.659243
v -0.415168 4.823182 9.659243
v 0.415168 5.404708 9.659243
v -0.415168 5.404708 9.659243
v 0.415168 5.404708 11.659243
v -0.415168 5.404708 11.659243
v 0.415168 5.934257 11.659236
v 0.415168 4.823182 13.626371
v 0.415168 0.000000 11.659243
v 0.415168 0.000000 9.659244
v 0.415168 4.823182 7.692114
v 0.415168 5.934257 9.659235
v -0.415168 5.934257 9.659245
v -0.415168 0.000000 9.659243
v -0.415168 4.823181 7.692114
v -0.415168 4.823182 13.626371
v -0.415168 5.934257 11.659236
v -0.415168 0.000000 11.659243
vt 0.654207 0.987541
vt 0.405654 0.987541
vt 0.405654 0.886169
vt 0.654207 0.886168
vt 0.347095 0.319572
vt 0.347095 0.071019
vt 0.347095 0.013761
vt 0.652905 0.013762
vt 0.652905 0.071019
vt 0.652905 0.319572
vt 0.319572 0.013761
vt 0.319572 0.262315
vt 0.218200 0.262315
vt 0.218200 0.013761
vt 0.013761 0.986239
vt 0.013761 0.737685
vt 0.013761 0.680428
vt 0.319572 0.680428
vt 0.319572 0.737685
vt 0.319572 0.986239
vt 0.347095 0.652905
vt 0.347095 0.347095
vt 0.448467 0.347095
vt 0.551533 0.347095
vt 0.652905 0.347095
vt 0.652905 0.652905
vt 0.551533 0.652905
vt 0.448467 0.652905
vt 0.319572 0.347095
vt 0.319572 0.652905
vt 0.218200 0.652905
vt 0.115134 0.652905
vt 0.013762 0.652905
vt 0.013761 0.347095
vt 0.115134 0.347095
vt 0.218200 0.347095
vt 0.802851 0.706573
vt 0.802851 0.529315
vt 0.818244 0.529315
vt 0.818244 0.706573
vt 0.348397 0.987541
vt 0.348397 0.886168
vt 0.375686 0.886168
vt 0.734313 0.898237
vt 0.734313 0.720979
vt 0.787252 0.720979
vt 0.787252 0.898237
vt 0.788714 0.529315
vt 0.788714 0.706573
vt 0.735775 0.706573
vt 0.735775 0.529315
vt 0.847773 0.529315
vt 0.847773 0.706573
vt 0.832380 0.706573
vt 0.832380 0.529315
vt 0.319572 0.319572
vt 0.218200 0.319572
vt 0.218200 0.292283
vt 0.115134 0.319572
vt 0.115134 0.292283
vt 0.348397 0.783103
vt 0.375686 0.783102
vt 0.115134 0.013761
vt 0.115134 0.262315
vt 0.013761 0.262315
vt 0.013761 0.013761
vt 0.013761 0.319572
vt 0.654207 0.783102
vt 0.405654 0.783102
vt 0.405654 0.681730
vt 0.654207 0.681730
vt 0.348397 0.681730
vn -1.0000 0.0000 0.0000
vn 0.0000 0.0000 -1.0000
vn 1.0000 0.0000 0.0000
vn -0.0000 0.0000 1.0000
vn 0.0000 -1.0000 0.0000
vn 0.0000 1.0000 0.0000
usemtl Материал
s off
f 28/85/21 53/86/21 37/87/21 55/88/21
f 30/89/22 52/90/22 31/91/22 35/92/22 48/93/22 34/94/22
f 34/95/23 48/96/23 38/97/23 47/98/23
f 32/99/24 45/100/24 33/101/24 29/102/24 53/103/24 28/104/24
f 30/105/25 34/106/25 47/107/25 46/108/25 32/109/25 28/110/25 55/111/25 51/112/25
f 35/113/26 31/114/26 50/115/26 54/116/26 29/117/26 33/118/26 44/119/26 49/120/26
f 39/121/24 38/122/24 40/123/24 41/124/24
f 37/87/21 53/86/21 29/125/21 54/126/21 43/127/21
f 37/128/26 36/129/26 38/130/26 39/131/26
f 42/132/25 43/133/25 41/134/25 40/135/25
f 36/136/22 37/137/22 43/138/22 42/139/22
f 38/97/23 48/96/23 35/140/23 49/141/23 40/142/23
f 44/143/23 42/144/23 40/142/23 49/141/23
f 50/145/21 41/146/21 43/127/21 54/126/21
f 46/147/23 36/148/23 45/149/23 32/150/23
f 47/98/23 38/97/23 36/148/23 46/147/23
f 36/148/23 42/144/23 44/143/23 33/151/23 45/149/23
f 51/152/21 39/153/21 52/154/21 30/155/21
f 39/153/21 41/146/21 50/145/21 31/156/21 52/154/21
f 55/88/21 37/87/21 39/153/21 51/152/21
o Куб.004_Куб.005
v -0.415168 0.000000 6.900731
v -0.415168 5.934257 6.900731
v -0.415168 0.000000 0.966474
v -0.415168 5.934257 0.966474
v 0.415168 0.000000 6.900731
v 0.415168 5.934257 6.900731
v 0.415168 0.000000 0.966474
v 0.415168 5.934257 0.966474
v 0.415168 2.398591 4.933602
v -0.415168 2.398591 4.933602
v 0.415168 2.398591 2.933603
v -0.415168 2.398591 2.933603
v 0.415168 5.078514 2.933603
v -0.415168 5.078514 2.933603
v 0.415168 5.078514 4.933602
v -0.415168 5.078514 4.933602
v 0.415168 3.967128 4.933603
v 0.415168 5.934257 4.933599
v 0.415168 5.078515 0.966474
v 0.415168 5.934257 2.933601
v 0.415168 0.000000 2.933603
v 0.415168 2.398592 0.966474
v 0.415168 0.000000 4.933602
v 0.415168 2.398591 6.900731
v 0.415168 5.078514 6.900731
v -0.415168 5.934257 2.933603
v -0.415168 0.000000 2.933603
v -0.415168 2.398591 6.900731
v -0.415168 5.078515 6.900731
v -0.415168 5.934257 4.933605
v -0.415168 5.078514 0.966474
v -0.415168 2.398592 0.966474
vt 0.654207 0.987541
vt 0.530601 0.987541
vt 0.530601 0.886168
vt 0.530601 0.783102
vt 0.654207 0.783102
vt 0.347095 0.319572
vt 0.347095 0.195965
vt 0.347095 0.057861
vt 0.347095 0.013761
vt 0.652905 0.013762
vt 0.652905 0.057861
vt 0.652905 0.195965
vt 0.652905 0.319572
vt 0.319572 0.013761
vt 0.319572 0.137368
vt 0.218200 0.137368
vt 0.218200 0.013761
vt 0.013761 0.986239
vt 0.013761 0.862632
vt 0.013761 0.724527
vt 0.013761 0.680428
vt 0.319572 0.680428
vt 0.319572 0.724527
vt 0.319572 0.862632
vt 0.319572 0.986239
vt 0.347095 0.652905
vt 0.347095 0.347095
vt 0.448467 0.347095
vt 0.551533 0.347095
vt 0.652905 0.347095
vt 0.652905 0.652905
vt 0.448467 0.652905
vt 0.319572 0.347095
vt 0.319572 0.652905
vt 0.218200 0.652905
vt 0.115133 0.652905
vt 0.013762 0.652905
vt 0.013761 0.347095
vt 0.115134 0.347095
vt 0.218200 0.347095
vt 0.736374 0.898618
vt 0.736374 0.703153
vt 0.786041 0.703153
vt 0.786041 0.898618
vt 0.218200 0.275473
vt 0.319572 0.275473
vt 0.319572 0.319572
vt 0.218200 0.319572
vt 0.799222 0.898618
vt 0.799222 0.703153
vt 0.836288 0.703153
vt 0.836288 0.898618
vt 0.834624 0.533024
vt 0.834624 0.688144
vt 0.799073 0.688144
vt 0.799073 0.533024
vt 0.781016 0.529613
vt 0.781016 0.691555
vt 0.739868 0.691555
vt 0.739868 0.529613
vt 0.756932 0.529613
vt 0.535828 0.912956
vt 0.535828 0.762162
vt 0.578661 0.762162
vt 0.578661 0.912956
vt 0.115134 0.319572
vt 0.115134 0.275473
vt 0.530601 0.681730
vt 0.654207 0.681730
vt 0.348397 0.783102
vt 0.392496 0.783102
vt 0.392496 0.886168
vt 0.348397 0.886169
vt 0.115134 0.137368
vt 0.115134 0.013761
vt 0.013761 0.137368
vt 0.013761 0.013761
vt 0.401690 0.912956
vt 0.401690 0.762162
vt 0.480200 0.762162
vt 0.392496 0.987541
vt 0.348397 0.987541
vt 0.392496 0.681730
vt 0.348397 0.681730
vn -1.0000 -0.0000 0.0000
vn 0.0000 0.0000 -1.0000
vn 1.0000 0.0000 0.0000
vn 0.0000 0.0000 1.0000
vn 0.0000 -1.0000 0.0000
vn 0.0000 1.0000 0.0000
usemtl Материал
s off
f 56/157/27 83/158/27 65/159/27 67/160/27 82/161/27
f 58/162/28 87/163/28 86/164/28 59/165/28 63/166/28 74/167/28 77/168/28 62/169/28
f 62/170/29 77/171/29 66/172/29 76/173/29
f 60/174/30 79/175/30 80/176/30 61/177/30 57/178/30 84/179/30 83/180/30 56/181/30
f 58/182/31 62/183/31 76/184/31 78/185/31 60/186/31 56/187/31 82/188/31
f 63/189/32 59/190/32 81/191/32 85/192/32 57/193/32 61/194/32 73/195/32 75/196/32
f 67/197/30 66/198/30 68/199/30 69/200/30
f 68/201/29 74/202/29 63/203/29 75/204/29
f 65/205/32 64/206/32 66/207/32 67/208/32
f 70/209/31 71/210/31 69/211/31 68/212/31
f 64/213/28 65/214/28 71/215/28 70/216/28 72/217/28
f 80/218/29 70/219/29 73/220/29 61/221/29
f 73/222/29 70/223/29 68/201/29 75/204/29
f 67/160/27 87/224/27 58/225/27 82/161/27
f 81/226/27 69/227/27 71/228/27 85/229/27
f 76/173/29 66/172/29 64/230/29 78/231/29
f 66/172/29 77/171/29 74/202/29 68/201/29
f 78/231/29 64/230/29 79/232/29 60/233/29
f 79/234/29 64/235/29 72/236/29 70/219/29 80/218/29
f 71/228/27 84/237/27 57/238/27 85/229/27
f 65/159/27 83/158/27 84/237/27 71/228/27
f 86/239/27 69/227/27 81/226/27 59/240/27
f 87/224/27 67/160/27 69/227/27 86/239/27
o Куб.003_Куб.004
v -0.415168 0.000000 -0.096235
v -0.415168 5.934257 -0.096235
v -0.415168 0.000000 -6.030492
v -0.415168 5.934257 -6.030492
v 0.415168 0.000000 -0.096235
v 0.415168 5.934257 -0.096235
v 0.415168 0.000000 -6.030492
v 0.415168 5.934257 -6.030492
v 0.415168 0.000000 -1.933733
v -0.415168 0.000000 -1.933733
v 0.415168 4.475266 -4.192994
v -0.415168 4.475266 -4.192994
v 0.415168 0.000000 -4.192995
v -0.415168 0.000000 -4.192995
v 0.415168 4.475266 -1.933733
v -0.415168 4.475266 -1.933733
v 0.415168 5.934257 -1.933733
v 0.415168 5.934257 -4.192995
v 0.415168 4.475266 -0.096235
v 0.415168 4.475266 -6.030492
v -0.415168 5.934257 -4.192991
v -0.415168 5.934257 -1.933739
v -0.415168 4.475263 -0.096235
v -0.415168 4.475264 -6.030492
vt 0.654207 0.987541
vt 0.423583 0.987541
vt 0.423583 0.892849
vt 0.654207 0.892849
vt 0.347095 0.319572
vt 0.347095 0.088948
vt 0.347095 0.013761
vt 0.652905 0.013762
vt 0.652905 0.088948
vt 0.652905 0.319572
vt 0.319572 0.013761
vt 0.319572 0.244386
vt 0.224880 0.244386
vt 0.224880 0.013761
vt 0.013761 0.986239
vt 0.013761 0.755614
vt 0.013761 0.680428
vt 0.319572 0.680428
vt 0.319572 0.755615
vt 0.319572 0.986239
vt 0.347095 0.652905
vt 0.347095 0.347095
vt 0.441787 0.347095
vt 0.441787 0.652905
vt 0.319572 0.347095
vt 0.319572 0.652905
vt 0.224880 0.652905
vt 0.108454 0.652905
vt 0.013762 0.652905
vt 0.013761 0.347095
vt 0.108453 0.347095
vt 0.224880 0.347095
vt 0.794225 0.717841
vt 0.794225 0.905283
vt 0.722859 0.905283
vt 0.722859 0.717841
vt 0.838021 0.512901
vt 0.838021 0.700343
vt 0.801993 0.700343
vt 0.801993 0.512901
vt 0.722110 0.700343
vt 0.722110 0.512901
vt 0.793476 0.512901
vt 0.793476 0.700343
vt 0.558213 0.652905
vt 0.558213 0.347095
vt 0.652905 0.347095
vt 0.652905 0.652905
vt 0.108453 0.244386
vt 0.013761 0.244386
vt 0.013761 0.013761
vt 0.108453 0.013761
vt 0.229802 0.145954
vt 0.229802 0.221141
vt 0.113375 0.221141
vt 0.113375 0.145954
vt 0.108453 0.319572
vt 0.013761 0.319572
vt 0.319572 0.319572
vt 0.224880 0.319572
vt 0.423583 0.776422
vt 0.423583 0.681730
vt 0.654207 0.681730
vt 0.654207 0.776422
vt 0.348397 0.892848
vt 0.348397 0.776422
vt 0.348397 0.987541
vt 0.348397 0.681730
vn -1.0000 0.0000 0.0000
vn -0.0000 0.0000 -1.0000
vn 1.0000 0.0000 0.0000
vn 0.0000 0.0000 1.0000
vn 0.0000 -1.0000 0.0000
vn 0.0000 1.0000 0.0000
usemtl Материал
s off
f 88/241/33 110/242/33 103/243/33 97/244/33
f 90/245/34 111/246/34 91/247/34 95/248/34 107/249/34 94/250/34
f 94/251/35 107/252/35 98/253/35 100/254/35
f 92/255/36 106/256/36 93/257/36 89/258/36 110/259/36 88/260/36
f 90/261/37 94/262/37 100/263/37 101/264/37
f 95/265/38 91/266/38 108/267/38 109/268/38 89/269/38 93/270/38 104/271/38 105/272/38
f 98/273/36 99/274/36 101/275/36 100/276/36
f 102/277/37 103/278/37 99/279/37 98/280/37
f 103/281/34 102/282/34 96/283/34 97/284/34
f 97/285/37 96/286/37 92/287/37 88/288/37
f 102/289/35 106/290/35 92/291/35 96/292/35
f 98/293/35 105/294/35 104/295/35 102/296/35
f 106/290/35 102/289/35 104/297/35 93/298/35
f 98/253/35 107/252/35 95/299/35 105/300/35
f 99/301/33 111/302/33 90/303/33 101/304/33
f 103/243/33 109/305/33 108/306/33 99/301/33
f 103/243/33 110/242/33 89/307/33 109/305/33
f 111/302/33 99/301/33 108/306/33 91/308/33
o Куб.001
v -0.415168 0.000000 -7.032872
v -0.415168 5.934257 -7.032872
v -0.415168 0.000000 -12.967129
v -0.415168 5.934257 -12.967129
v 0.415168 0.000000 -7.032872
v 0.415168 5.934257 -7.032872
v 0.415168 0.000000 -12.967129
v 0.415168 5.934257 -12.967129
vt 0.654207 0.987541
vt 0.348397 0.987541
vt 0.348397 0.681730
vt 0.654207 0.681730
vt 0.347095 0.319572
vt 0.347095 0.013761
vt 0.652905 0.013762
vt 0.652905 0.319572
vt 0.319572 0.013761
vt 0.319572 0.319572
vt 0.013761 0.319572
vt 0.013761 0.013761
vt 0.013761 0.986239
vt 0.013761 0.680428
vt 0.319572 0.680428
vt 0.319572 0.986239
vt 0.347095 0.652905
vt 0.347095 0.347095
vt 0.652905 0.347095
vt 0.652905 0.652905
vt 0.319572 0.347095
vt 0.319572 0.652905
vt 0.013762 0.652905
vt 0.013761 0.347095
vn -1.0000 0.0000 0.0000
vn 0.0000 0.0000 -1.0000
vn 1.0000 0.0000 0.0000
vn 0.0000 0.0000 1.0000
vn 0.0000 -1.0000 0.0000
vn 0.0000 1.0000 0.0000
usemtl Материал
s off
f 112/309/39 113/310/39 115/311/39 114/312/39
f 114/313/40 115/314/40 119/315/40 118/316/40
f 118/317/41 119/318/41 117/319/41 116/320/41
f 116/321/42 117/322/42 113/323/42 112/324/42
f 114/325/43 118/326/43 116/327/43 112/328/43
f 119/329/44 115/330/44 113/331/44 117/332/44
